<?xml version="1.0" standalone="no"?><!DOCTYPE svg PUBLIC "-//W3C//DTD SVG 1.1//EN" "http://www.w3.org/Graphics/SVG/1.1/DTD/svg11.dtd"><svg t="1556367696348" class="icon" style="" viewBox="0 0 1024 1024" version="1.1" xmlns="http://www.w3.org/2000/svg" p-id="2077" xmlns:xlink="http://www.w3.org/1999/xlink" width="200" height="200"><defs><style type="text/css"></style></defs><path d="M768.700632 477.749895a29.103158 29.103158 0 0 1-30.800843-30.800842v-252.496842a35.570526 35.570526 0 0 0-36.944842-36.944843H257.562947v117.005474a30.800842 30.800842 0 0 1-61.574736 0V95.932632h504.993684a97.28 97.28 0 0 1 98.519579 98.519579v252.496842a33.118316 33.118316 0 0 1-30.800842 30.800842z" fill="#83D2EA" p-id="2078"></path><path d="M873.418105 933.591579H134.413474a69.685895 69.685895 0 0 1-70.817685-70.817684V314.556632a69.685895 69.685895 0 0 1 70.817685-70.817685h240.181894a70.494316 70.494316 0 0 1 67.745685 46.18779l43.115789 120.077474c0 3.072 6.170947 6.170947 9.242947 6.170947h378.745264a69.685895 69.685895 0 0 1 70.817684 70.817684v375.646316a67.880421 67.880421 0 0 1-70.844632 70.952421zM137.485474 302.241684a8.084211 8.084211 0 0 0-9.242948 9.242948v551.154526a8.084211 8.084211 0 0 0 9.242948 9.242947h739.004631a8.084211 8.084211 0 0 0 9.242948-9.242947v-375.646316a8.084211 8.084211 0 0 0-9.242948-9.242947H497.744842a70.494316 70.494316 0 0 1-67.664842-46.18779l-43.115789-120.077473c0-3.072-6.170947-6.170947-9.242948-6.170948H137.539368z" fill="#208BB5" p-id="2079"></path></svg>