<?xml version="1.0" standalone="no"?><!DOCTYPE svg PUBLIC "-//W3C//DTD SVG 1.1//EN" "http://www.w3.org/Graphics/SVG/1.1/DTD/svg11.dtd"><svg t="1557479670271" class="icon" style="" viewBox="0 0 1024 1024" version="1.1" xmlns="http://www.w3.org/2000/svg" p-id="1199" xmlns:xlink="http://www.w3.org/1999/xlink" width="200" height="200"><defs><style type="text/css"></style></defs><path d="M929.397092 885.054666H91.30395c-15.479098 0-28.029885-12.550786-28.029885-28.029885V517.550482c0-10.784584 6.186315-20.625146 15.917322-25.278704l148.893404-71.305422-41.086471-57.756348a28.110772 28.110772 0 0 1-5.187003-16.245988V240.485066c0-74.370934 59.521526-132.634105 135.508151-132.634105s135.508151 58.262147 135.508151 132.634105v106.478954a28.084151 28.084151 0 0 1-4.926936 15.876366l-42.167693 61.328683 73.207801 48.216808-30.820996 46.821252-97.09095-63.928328a28.064697 28.064697 0 0 1-12.098229-18.038812 28.03398 28.03398 0 0 1 4.406802-21.254835l53.431456-77.724159v-97.774905c0-42.933559-34.900155-76.574336-79.448382-76.574336-44.54925 0-79.449406 33.640776-79.449406 76.574336v97.528148l55.196634 77.601293a28.055482 28.055482 0 0 1 4.297247 23.26677 28.005311 28.005311 0 0 1-15.027565 18.257923l-163.003567 78.066137v293.789559h782.034396V534.877694l-155.969476-77.943271a27.987905 27.987905 0 0 1-14.616987-18.066456 28.065721 28.065721 0 0 1 4.03718-22.883837l53.431456-77.724159v-97.774905c0-42.933559-34.900155-76.574336-79.449406-76.574336-44.54925 0-79.449406 33.640776-79.449405 76.574336v97.528149l55.196634 77.601292a28.047291 28.047291 0 0 1 4.789735 20.940503 28.042171 28.042171 0 0 1-11.427584 18.174988l-90.274945 63.928328-32.409042-45.740029 67.363463-47.696674-44.111028-62.012638a28.008383 28.008383 0 0 1-5.187003-16.245989V240.485066c0-74.370934 59.521526-132.634105 135.508151-132.634105s135.508151 58.262147 135.508151 132.634105v106.478954a28.084151 28.084151 0 0 1-4.926936 15.876366l-40.114803 58.345081 142.651799 71.292112a28.013502 28.013502 0 0 1 15.506743 25.072903V857.025805c0.002048 15.479098-12.548739 28.028861-28.027836 28.028861z" fill="#515151" p-id="1200"></path></svg>